# xmcd CD database file
#
# Track frame offsets:
#	150
#	14847
#	30220
#	45437
#	55574
#	61083
#	73880
#	82125
#	92662
#	95695
#	112104
#	119189
#	126222
#
# Disc length: 1817 seconds
#
# Revision: 0
# Processed by: cddbd v1.5.1PL0 Copyright (c) Steve Scherf et al.
# Submitted via: CDex 1.51
#
DISCID=b507170d
DTITLE=Matt Lindahl - Adobe Trailer Motel
DYEAR=2004
DGENRE=Country
TTITLE0=Grandma's Gravy
TTITLE1=I woke up
TTITLE2=Grandpa's song
TTITLE3=Get out of my head
TTITLE4=Pepe Chile
TTITLE5=Head in the clouds
TTITLE6=Jump off the bridge
TTITLE7=If it runs rope it
TTITLE8=Bob's Flakes
TTITLE9=Drinking Song
TTITLE10=Irish Father
TTITLE11=B98.5//Disco Burger
TTITLE12=News//Gospel Hour
EXTD=YEAR: 2004
EXTT0=
EXTT1=
EXTT2=
EXTT3=
EXTT4=
EXTT5=
EXTT6=
EXTT7=
EXTT8=
EXTT9=
EXTT10=
EXTT11=
EXTT12=
PLAYORDER=
